<svg width="108" height="27" viewBox="0 0 108 27" fill="none" xmlns="http://www.w3.org/2000/svg">
<path d="M1.42 20V5.9H6.94C8.54 5.9 9.9 6.18 11.02 6.74C12.1533 7.28667 13.0133 8.08667 13.6 9.14C14.2 10.18 14.5 11.4467 14.5 12.94C14.5 14.4333 14.2 15.7067 13.6 16.76C13.0133 17.8133 12.1533 18.62 11.02 19.18C9.9 19.7267 8.54 20 6.94 20H1.42ZM4.52 17.46H6.76C8.26667 17.46 9.39333 17.0867 10.14 16.34C10.8867 15.5933 11.26 14.46 11.26 12.94C11.26 11.42 10.88 10.2933 10.12 9.56C9.37333 8.81333 8.25333 8.44 6.76 8.44H4.52V17.46ZM19.9683 20.22C19.2483 20.22 18.6016 20.08 18.0283 19.8C17.4549 19.52 17.0083 19.14 16.6883 18.66C16.3683 18.18 16.2083 17.64 16.2083 17.04C16.2083 16.32 16.3949 15.7533 16.7683 15.34C17.1416 14.9133 17.7483 14.6133 18.5883 14.44C19.4283 14.2533 20.5416 14.16 21.9283 14.16H22.9883V15.72H21.9483C21.4283 15.72 20.9883 15.74 20.6283 15.78C20.2816 15.82 19.9949 15.8933 19.7683 16C19.5416 16.0933 19.3749 16.2133 19.2683 16.36C19.1749 16.5067 19.1283 16.6933 19.1283 16.92C19.1283 17.2933 19.2549 17.6 19.5083 17.84C19.7749 18.08 20.1549 18.2 20.6483 18.2C21.0349 18.2 21.3749 18.1133 21.6683 17.94C21.9749 17.7533 22.2149 17.5067 22.3883 17.2C22.5616 16.88 22.6483 16.52 22.6483 16.12V13.82C22.6483 13.2333 22.5149 12.82 22.2483 12.58C21.9816 12.3267 21.5283 12.2 20.8883 12.2C20.3549 12.2 19.7883 12.2867 19.1883 12.46C18.6016 12.62 18.0149 12.8667 17.4283 13.2L16.6083 11.18C16.9549 10.94 17.3749 10.7333 17.8683 10.56C18.3749 10.3733 18.9016 10.2333 19.4483 10.14C19.9949 10.0333 20.5149 9.98 21.0083 9.98C22.0349 9.98 22.8749 10.1333 23.5283 10.44C24.1949 10.7333 24.6949 11.1933 25.0283 11.82C25.3616 12.4333 25.5283 13.2267 25.5283 14.2V20H22.7083V18.02H22.8483C22.7683 18.4733 22.5949 18.8667 22.3283 19.2C22.0749 19.52 21.7483 19.7733 21.3483 19.96C20.9483 20.1333 20.4883 20.22 19.9683 20.22ZM31.5411 20.22C30.9678 20.22 30.4144 20.1733 29.8811 20.08C29.3478 19.9867 28.8611 19.86 28.4211 19.7C27.9811 19.54 27.5944 19.34 27.2611 19.1L27.9811 17.14C28.3144 17.34 28.6744 17.52 29.0611 17.68C29.4611 17.8267 29.8744 17.94 30.3011 18.02C30.7278 18.1 31.1478 18.14 31.5611 18.14C32.1344 18.14 32.5478 18.0533 32.8011 17.88C33.0678 17.6933 33.2011 17.4533 33.2011 17.16C33.2011 16.8933 33.1144 16.6933 32.9411 16.56C32.7678 16.4267 32.5144 16.3333 32.1811 16.28L30.0811 15.9C29.2544 15.7533 28.6144 15.4533 28.1611 15C27.7211 14.5333 27.5011 13.94 27.5011 13.22C27.5011 12.5533 27.6878 11.98 28.0611 11.5C28.4344 11.0067 28.9478 10.6333 29.6011 10.38C30.2678 10.1133 31.0211 9.98 31.8611 9.98C32.3411 9.98 32.8078 10.02 33.2611 10.1C33.7144 10.18 34.1411 10.3 34.5411 10.46C34.9544 10.62 35.3211 10.8333 35.6411 11.1L34.8811 13.04C34.6278 12.84 34.3278 12.6667 33.9811 12.52C33.6344 12.3733 33.2811 12.26 32.9211 12.18C32.5611 12.0867 32.2211 12.04 31.9011 12.04C31.3011 12.04 30.8678 12.14 30.6011 12.34C30.3344 12.5267 30.2011 12.7667 30.2011 13.06C30.2011 13.2867 30.2744 13.48 30.4211 13.64C30.5811 13.7867 30.8211 13.8867 31.1411 13.94L33.2411 14.32C34.1078 14.4667 34.7678 14.76 35.2211 15.2C35.6744 15.6267 35.9011 16.2133 35.9011 16.96C35.9011 17.64 35.7211 18.2267 35.3611 18.72C35.0011 19.2 34.4944 19.5733 33.8411 19.84C33.1878 20.0933 32.4211 20.22 31.5411 20.22ZM37.6248 20V5.9H40.6448V12.02H40.3648C40.6715 11.3667 41.1248 10.8667 41.7248 10.52C42.3382 10.16 43.0315 9.98 43.8048 9.98C44.5915 9.98 45.2382 10.1333 45.7448 10.44C46.2515 10.7333 46.6315 11.1867 46.8848 11.8C47.1382 12.4 47.2648 13.1667 47.2648 14.1V20H44.2448V14.24C44.2448 13.7867 44.1848 13.42 44.0648 13.14C43.9582 12.8467 43.7915 12.64 43.5648 12.52C43.3515 12.3867 43.0782 12.32 42.7448 12.32C42.3182 12.32 41.9448 12.4133 41.6248 12.6C41.3182 12.7733 41.0782 13.0267 40.9048 13.36C40.7315 13.6933 40.6448 14.08 40.6448 14.52V20H37.6248Z" fill="#4880FF"/>
<path d="M54.8194 20.22C54.086 20.22 53.3727 20.1533 52.6794 20.02C51.9994 19.9 51.366 19.7267 50.7794 19.5C50.1927 19.26 49.6794 18.98 49.2394 18.66L50.1394 16.22C50.566 16.5133 51.026 16.7667 51.5194 16.98C52.0127 17.1933 52.5394 17.36 53.0994 17.48C53.6594 17.5867 54.2327 17.64 54.8194 17.64C55.7927 17.64 56.486 17.4933 56.8994 17.2C57.3127 16.8933 57.5194 16.5133 57.5194 16.06C57.5194 15.8067 57.4527 15.5867 57.3194 15.4C57.1994 15.2133 56.9927 15.0533 56.6994 14.92C56.4194 14.7733 56.0327 14.6533 55.5394 14.56L53.2794 14.08C51.9994 13.8133 51.046 13.36 50.4194 12.72C49.806 12.0667 49.4994 11.2133 49.4994 10.16C49.4994 9.25333 49.7394 8.46667 50.2194 7.8C50.7127 7.13333 51.386 6.61333 52.2394 6.24C53.106 5.86667 54.0994 5.68 55.2194 5.68C55.8727 5.68 56.4994 5.74667 57.0994 5.88C57.6994 6 58.2527 6.18 58.7594 6.42C59.266 6.66 59.706 6.94667 60.0794 7.28L59.1794 9.56C58.646 9.13333 58.046 8.81333 57.3794 8.6C56.7127 8.37333 55.986 8.26 55.1994 8.26C54.6394 8.26 54.1594 8.33333 53.7594 8.48C53.3727 8.62667 53.0727 8.83333 52.8594 9.1C52.6594 9.36667 52.5594 9.67333 52.5594 10.02C52.5594 10.4067 52.6994 10.72 52.9794 10.96C53.2594 11.2 53.746 11.3933 54.4394 11.54L56.6994 12.02C58.006 12.3 58.9794 12.7533 59.6194 13.38C60.2594 13.9933 60.5794 14.8067 60.5794 15.82C60.5794 16.7 60.3394 17.4733 59.8594 18.14C59.3927 18.7933 58.726 19.3067 57.8594 19.68C57.006 20.04 55.9927 20.22 54.8194 20.22ZM67.0152 20.22C65.6152 20.22 64.5752 19.88 63.8952 19.2C63.2152 18.52 62.8752 17.52 62.8752 16.2V12.44H61.0152V10.18H62.8752V7.3H65.8952V10.18H68.7952V12.44H65.8952V16.08C65.8952 16.64 66.0218 17.06 66.2752 17.34C66.5418 17.62 66.9618 17.76 67.5352 17.76C67.7085 17.76 67.8885 17.74 68.0752 17.7C68.2752 17.66 68.4885 17.6067 68.7152 17.54L69.1552 19.74C68.8752 19.8867 68.5418 20 68.1552 20.08C67.7685 20.1733 67.3885 20.22 67.0152 20.22ZM73.6011 20.22C72.8811 20.22 72.2344 20.08 71.6611 19.8C71.0878 19.52 70.6411 19.14 70.3211 18.66C70.0011 18.18 69.8411 17.64 69.8411 17.04C69.8411 16.32 70.0278 15.7533 70.4011 15.34C70.7744 14.9133 71.3811 14.6133 72.2211 14.44C73.0611 14.2533 74.1744 14.16 75.5611 14.16H76.6211V15.72H75.5811C75.0611 15.72 74.6211 15.74 74.2611 15.78C73.9144 15.82 73.6278 15.8933 73.4011 16C73.1744 16.0933 73.0078 16.2133 72.9011 16.36C72.8078 16.5067 72.7611 16.6933 72.7611 16.92C72.7611 17.2933 72.8878 17.6 73.1411 17.84C73.4078 18.08 73.7878 18.2 74.2811 18.2C74.6678 18.2 75.0078 18.1133 75.3011 17.94C75.6078 17.7533 75.8478 17.5067 76.0211 17.2C76.1944 16.88 76.2811 16.52 76.2811 16.12V13.82C76.2811 13.2333 76.1478 12.82 75.8811 12.58C75.6144 12.3267 75.1611 12.2 74.5211 12.2C73.9878 12.2 73.4211 12.2867 72.8211 12.46C72.2344 12.62 71.6478 12.8667 71.0611 13.2L70.2411 11.18C70.5878 10.94 71.0078 10.7333 71.5011 10.56C72.0078 10.3733 72.5344 10.2333 73.0811 10.14C73.6278 10.0333 74.1478 9.98 74.6411 9.98C75.6678 9.98 76.5078 10.1333 77.1611 10.44C77.8278 10.7333 78.3278 11.1933 78.6611 11.82C78.9944 12.4333 79.1611 13.2267 79.1611 14.2V20H76.3411V18.02H76.4811C76.4011 18.4733 76.2278 18.8667 75.9611 19.2C75.7078 19.52 75.3811 19.7733 74.9811 19.96C74.5811 20.1333 74.1211 20.22 73.6011 20.22ZM86.1939 20.22C85.1272 20.22 84.1939 20.0133 83.3939 19.6C82.6072 19.1733 82.0006 18.5733 81.5739 17.8C81.1472 17.0267 80.9339 16.1133 80.9339 15.06C80.9339 14.0067 81.1472 13.1 81.5739 12.34C82.0006 11.58 82.6072 11 83.3939 10.6C84.1939 10.1867 85.1272 9.98 86.1939 9.98C86.8339 9.98 87.4672 10.0733 88.0939 10.26C88.7339 10.4467 89.2539 10.7133 89.6539 11.06L88.8139 13.14C88.4939 12.8733 88.1206 12.6667 87.6939 12.52C87.2672 12.36 86.8672 12.28 86.4939 12.28C85.7072 12.28 85.0939 12.5267 84.6539 13.02C84.2272 13.5 84.0139 14.1867 84.0139 15.08C84.0139 15.96 84.2272 16.6533 84.6539 17.16C85.0939 17.6533 85.7072 17.9 86.4939 17.9C86.8672 17.9 87.2672 17.8267 87.6939 17.68C88.1206 17.5333 88.4939 17.32 88.8139 17.04L89.6539 19.12C89.2539 19.4533 88.7339 19.72 88.0939 19.92C87.4539 20.12 86.8206 20.22 86.1939 20.22ZM90.9647 20V5.9H93.9847V14.24H94.0247L97.6447 10.18H101.225L96.5647 15.44V14.3L101.425 20H97.7847L94.0247 15.76H93.9847V20H90.9647Z" fill="#202224"/>
</svg>
